<svg width="100" height="100" viewBox="0 0 100 100" xmlns="http://www.w3.org/2000/svg"><title>9FDB635D-011D-439F-A7FF-4A59FA402820</title><g fill="#F5A623" fill-rule="evenodd"><path d="M88.553 63.158c-.79 0-1.316.526-1.316 1.316v5.131c0 .79.526 1.316 1.316 1.316s1.315-.526 1.315-1.316v-5.131c0-.79-.526-1.316-1.315-1.316zM16.842 79.737h-6.71c-.79 0-1.316.526-1.316 1.316v11.842c0 .79.526 1.316 1.316 1.316h6.71c.79 0 1.316-.527 1.316-1.316V81.053c0-.79-.658-1.316-1.316-1.316zm-1.316 11.842h-4.079v-9.21h4.08v9.21zM28.684 79.737h-6.71c-.79 0-1.316.526-1.316 1.316v11.842c0 .79.526 1.316 1.316 1.316h6.71c.79 0 1.316-.527 1.316-1.316V81.053c0-.79-.658-1.316-1.316-1.316zm-1.316 11.842H23.29v-9.21h4.08v9.21zM48.026 79.737h-6.71c-.79 0-1.316.526-1.316 1.316v11.842c0 .79.526 1.316 1.316 1.316h6.71c.79 0 1.316-.527 1.316-1.316V81.053c0-.79-.526-1.316-1.316-1.316zm-1.315 11.842h-4.08v-9.21h4.08v9.21zM59.868 79.737h-6.71c-.79 0-1.316.526-1.316 1.316v11.842c0 .79.526 1.316 1.316 1.316h6.71c.79 0 1.316-.527 1.316-1.316V81.053c0-.79-.526-1.316-1.316-1.316zm-1.315 11.842h-4.08v-9.21h4.08v9.21z"/><path d="M99.21 32.763l-2.5-24.342V1.447c0-.79-.526-1.315-1.315-1.315H3.947c-.79 0-1.315.526-1.315 1.315v6.974l-2.5 24.474v.131c0 2.237.92 4.21 2.5 5.527v60c0 .79.526 1.315 1.315 1.315h91.185c.79 0 1.315-.526 1.315-1.315V38.816c1.71-1.316 2.764-3.421 2.764-5.79v-.263zm-7.236 5c-2.237 0-4.08-1.447-4.606-3.552h9.08c-.527 2.105-2.37 3.552-4.474 3.552zm1.842 59.474h-26.58V94.21h26.58v3.026zM3.026 34.21h9.08c-.527 1.973-2.37 3.552-4.606 3.552-2.105 0-3.947-1.447-4.474-3.552zM5.263 9.737h6.842v21.842H3.026L5.263 9.737zm91.184 21.842h-9.605V9.737h7.369l2.236 21.842zm-12.236 0h-9.474V9.737h9.474v21.842zm-33.158 0V9.737h9.473v21.842h-9.473zm-2.632 0h-9.474V9.737h9.474v21.842zm-12.105 0h-9.474V9.737h9.474v21.842zm11.973 2.632c-.526 1.973-2.368 3.552-4.605 3.552-2.237 0-4.079-1.447-4.605-3.552h9.21zm11.974 0c-.526 1.973-2.368 3.552-4.605 3.552-2.237 0-4.08-1.447-4.605-3.552h9.21zm2.895-24.474h8.947v21.842h-8.947V9.737zm11.579-2.632V2.763h9.474v4.342h-9.474zm-2.632 0h-8.947V2.763h8.947v4.342zm-11.579 0h-9.473V2.763h9.473v4.342zm-12.105 0h-9.474V2.763h9.474v4.342zm-12.105 0h-9.474V2.763h9.474v4.342zm-11.974 0h-9.605V2.763h9.605v4.342zm0 2.632v21.842h-9.605V9.737h9.605zM24.08 34.21c-.526 1.973-2.368 3.552-4.605 3.552-2.237 0-4.08-1.447-4.606-3.552h9.21zm12.105 0c-.526 1.973-2.368 3.552-4.605 3.552-2.237 0-4.079-1.447-4.605-3.552h9.21zm0 41.842h28.553v21.184H36.184V76.053zm28.421-2.632h-28.42V38.816c.526-.395 1.052-1.053 1.578-1.58 1.316 1.975 3.553 3.159 6.053 3.159s4.737-1.316 6.052-3.158c1.316 1.974 3.553 3.158 6.053 3.158s4.737-1.316 6.053-3.158c.658 1.052 1.71 1.842 2.894 2.368v33.816h-.263zm-1.316-39.21h9.08c-.527 1.973-2.369 3.552-4.606 3.552-2.105 0-3.947-1.447-4.474-3.552zm21.185 0c-.527 1.973-2.369 3.552-4.606 3.552-2.236 0-4.079-1.447-4.605-3.552h9.21zM94.21 7.105h-7.369V2.763h7.237v4.342h.132zM5.263 2.763h6.71v4.342h-6.71V2.763zM7.5 40.395c2.5 0 4.737-1.316 6.053-3.158 1.315 1.974 3.552 3.158 6.052 3.158 2.5 0 4.737-1.316 6.053-3.158 1.316 1.974 3.553 3.158 6.053 3.158.657 0 1.315-.132 1.842-.263v33.29H5.263V40c.79.263 1.448.395 2.237.395zM5.263 76.053h28.158v21.184H5.263V76.053zm88.553 15.526h-26.58V40.395h.527c2.5 0 4.737-1.316 6.053-3.158 1.316 1.974 3.552 3.158 6.052 3.158 2.5 0 4.737-1.316 6.053-3.158 1.316 1.974 3.553 3.158 6.053 3.158.658 0 1.315-.132 1.973-.263v51.447h-.131z"/></g></svg>