<svg width="20" height="20" viewBox="0 0 20 20" xmlns="http://www.w3.org/2000/svg"><title>11FFCD1C-DBE0-4E8E-AF0B-F0D14BEA1E43</title><path d="M18.446 0H1.554C.698 0 0 .698 0 1.554v16.892C0 19.302.698 20 1.554 20H18.446c.856 0 1.554-.698 1.554-1.554V1.554C20 .698 19.302 0 18.446 0zm-7.284 18.99v-7.374H8.687V9.798h2.475V7.162c0-1.042.297-1.89.868-2.455.548-.542 1.354-.828 2.316-.828.676 0 1.26.033 1.715.066v1.6h-1.034c-1.925 0-1.946 1.43-1.946 1.9v2.353h2.79l-.24 1.818h-2.55v7.374h-1.92zm7.828-.544c0 .3-.245.544-.544.544h-4.355v-6.364h2.429l.5-3.838h-2.93V7.446c0-.349.058-.566.157-.684.115-.137.39-.206.786-.206l2.038-.001v-3.51l-.45-.059a20.62 20.62 0 0 0-2.282-.117c-1.233 0-2.275.387-3.017 1.12-.767.758-1.17 1.855-1.17 3.173v1.626H7.677v3.838h2.475v6.364H1.554a.545.545 0 0 1-.544-.544V1.554c0-.3.245-.544.544-.544h16.892c.3 0 .544.245.544.544v16.892z" fill="#FFF" fill-rule="evenodd"/></svg>