<svg width="80" height="80" viewBox="0 0 80 80" xmlns="http://www.w3.org/2000/svg"><title>39512B17-956C-403E-A2DF-345EC4BC97B9</title><g transform="translate(-85 -60)" fill="none" fill-rule="evenodd"><rect x=".367" width="250" height="250" rx="2"/><path d="M143.366 60.463a2.518 2.518 0 0 1 0 5.035c-1.071-.026-1.882-.622-2.288-1.588h-31.185c24.229 4.963 45.85 25.09 50.871 49.653V83.87c-1.036-.334-1.485-1.274-1.587-2.289a2.518 2.518 0 0 1 5.035 0c-.026 1.072-.622 1.882-1.587 2.289v43.793l.017.692h1.843v5.58h-5.58v-5.58h1.833c-.413-16.61-7.007-32.663-18.9-44.34l-.061 1.03-.254 4.313c-.246 4.192-.246 4.192-.33 5.59a.93.93 0 0 1-.927.875c-.187 0-.537.017-.994.067-.761.085-1.521.238-2.22.47-.86.287-1.558.675-2.048 1.164l-1.972 1.973a.93.93 0 0 1-1.315 0l-.659-.657-1.315 1.315.756.756-.28.592c-2.664 5.614-8.429 13.182-15.664 20.417-12.398 12.397-24.704 19.889-28.216 16.377-3.511-3.512 3.981-15.818 16.378-28.214 7.107-7.107 14.766-12.932 20.41-15.662l.596-.287.759.76 1.316-1.316-.658-.657a.93.93 0 0 1 0-1.316l1.973-1.973c.488-.488.877-1.187 1.164-2.048.233-.698.385-1.458.47-2.22.05-.455.066-.806.066-.993 0-.492.384-.9.876-.928l5.59-.33 5.322-.312c-11.728-11.62-27.79-17.415-44.009-18.595v1.837h-5.58v-5.58h5.58v1.587h44.486c.333-1.036 1.274-1.485 2.288-1.587zm-20.015 35.93c-7.265 3.807-13.465 9.334-19.319 15.005-11.504 11.504-18.677 23.284-16.377 25.584 2.3 2.3 14.08-4.873 25.584-16.377 5.596-5.875 11.352-11.98 15.009-19.317l-4.897-4.895zm39.274 33.822h-1.86v1.86h1.86v-1.86zm-35.512-35.322l-1.315 1.316 2.63 2.63 1.315-1.315-2.63-2.63zm11.423-10.107l-3.147.185-4.766.28-.028.319a12.78 12.78 0 0 1-.553 2.603c-.371 1.112-.897 2.057-1.614 2.774l-1.315 1.315 5.261 5.262 1.315-1.315c.717-.718 1.662-1.242 2.776-1.613.835-.28 1.72-.456 2.602-.554l.319-.027.28-4.766.185-3.148-5.753 5.753c0 1.355.204.8-.409 1.724a1.86 1.86 0 1 1-2.63-2.63c.32-.228.526-.408.92-.455.269.02.538.037.808.041l5.749-5.748zM94.732 62.323h-1.86v1.86h1.86v-1.86z" fill="#F5A623"/></g></svg>