<svg width="95" height="86" viewBox="0 0 95 86" xmlns="http://www.w3.org/2000/svg"><title>995A3F6D-EA03-4EFE-A75C-8C56C77E1C8F</title><g fill="none" fill-rule="evenodd"><path d="M93.8 26.432L73.91 11.176a.515.515 0 0 0-.14-.076L59.493 6.023c-.01-.003-.02 0-.03-.004-.033-.01-.066-.011-.102-.014-.033-.002-.063-.007-.096-.003s-.064.016-.097.026c-.026.009-.053.01-.078.02-.007.005-.012.012-.02.016-.006.004-.014.004-.022.008-.045.028-4.577 2.836-11.55 2.836-6.974 0-11.504-2.807-11.55-2.836-.007-.004-.015-.004-.022-.008-.007-.004-.012-.011-.02-.015-.024-.012-.052-.013-.078-.022-.03-.009-.06-.021-.091-.025-.036-.004-.07 0-.105.003-.032.003-.063.005-.093.013-.011.003-.023.001-.033.005L21.23 11.1a.502.502 0 0 0-.14.076L1.2 26.432a.517.517 0 0 0-.2.409c0 .236.098 5.901 8.622 15.223.15.165.39.214.593.118l10.676-5v46.62c0 .27.207.493.475.513.163.01 16.472 1.144 26.134 1.144 9.662 0 25.972-1.133 26.135-1.144a.512.512 0 0 0 .475-.512v-46.62l10.675 5a.51.51 0 0 0 .593-.119C93.902 32.742 94 27.077 94 26.841c0-.16-.074-.311-.2-.409zM58.354 7.602c-1.091 2.497-4.207 7.874-10.854 7.874-6.654 0-9.767-5.378-10.855-7.874 1.848.883 5.67 2.333 10.855 2.333 5.183 0 9.006-1.451 10.854-2.333zm26.523 33.491l-11.061-5.18a.512.512 0 0 0-.727.464v46.947c-2.762.186-16.89 1.11-25.589 1.11-8.7 0-22.827-.924-25.588-1.11V36.377a.51.51 0 0 0-.727-.465l-11.062 5.182c-7.02-7.772-7.958-12.879-8.082-14.014l19.607-15.04 13.715-4.877C36.116 9.197 39.388 16.5 47.5 16.5c8.105 0 11.383-7.304 12.137-9.337l13.716 4.877L92.96 27.08c-.126 1.14-1.067 6.245-8.083 14.013z" fill="#F5A623" stroke="#F5A623"/><circle fill="#F5A623" cx="78" cy="11" r="11"/><text font-family="Avenir-Heavy, Avenir" font-size="11" font-weight="600" fill="#FFF"><tspan x="70.95" y="15">10</tspan></text></g></svg>