<?xml version="1.0" encoding="UTF-8" standalone="no"?>
<svg width="91px" height="80px" viewBox="0 0 91 80" version="1.1" xmlns="http://www.w3.org/2000/svg" xmlns:xlink="http://www.w3.org/1999/xlink">
    <!-- Generator: Sketch 41 (35326) - http://www.bohemiancoding.com/sketch -->
    <title>Group</title>
    <desc>Created with Sketch.</desc>
    <defs></defs>
    <g id="Page-1" stroke="none" stroke-width="1" fill="none" fill-rule="evenodd">
        <g id="Main" transform="translate(-916.000000, -5699.000000)" fill="#F5A623">
            <g id="noun_853988_cc" transform="translate(916.000000, 5699.000000)">
                <g id="Group">
                    <path d="M0.750515464,48.1904762 C-0.656701031,51.5238095 0.93814433,55.4285714 4.22164948,56.952381 L4.22164948,56.952381 L16.6989691,61.8095238 L4.22164948,66.5714286 L4.22164948,66.5714286 C0.93814433,68.0952381 -0.656701031,71.9047619 0.750515464,75.3333333 C2.15773196,78.7619048 6.09793814,80.3809524 9.56907216,78.952381 C13.0402062,77.5238095 14.728866,73.5238095 13.3216495,70.0952381 C13.2278351,69.8095238 13.0402062,69.4285714 12.8525773,69.1428571 L23.6412371,64.6666667 L30.5835052,67.5238095 C34.7113402,69.4285714 45.5,74.1904762 51.8793814,76.0952381 C59.7597938,78.4761905 63.7,73.1428571 63.7,73.1428571 L37.4319588,61.7142857 L63.7,49.9047619 C63.7,49.9047619 59.9474227,45.4285714 53.6618557,47.047619 C48.6896907,48.3809524 35.9309278,53.7142857 31.0525773,55.8095238 L23.828866,58.8571429 L13.0402062,54.3809524 C13.2278351,54.0952381 13.4154639,53.8095238 13.5092784,53.4285714 C14.9164948,50 13.2278351,46 9.75670103,44.5714286 C6.09793814,43.1428571 2.15773196,44.7619048 0.750515464,48.1904762 Z M10.6010309,71.4285714 C11.3515464,73.2380952 10.4134021,75.3333333 8.44329897,76.1904762 C6.56701031,76.952381 4.40927835,76.1904762 3.65876289,74.3809524 C2.90824742,72.5714286 3.84639175,70.4761905 5.81649485,69.6190476 C7.69278351,68.8571429 9.85051546,69.6190476 10.6010309,71.4285714 Z M34.8989691,63.047619 L35.1804124,62.4761905 L60.0412371,73.2380952 L59.7597938,73.8095238 L34.8989691,63.047619 Z M29.457732,59.7142857 C30.3958763,59.7142857 31.1463918,60.4761905 31.1463918,61.4285714 C31.1463918,62.3809524 30.3958763,63.1428571 29.457732,63.1428571 C28.5195876,63.1428571 27.7690722,62.3809524 27.7690722,61.4285714 C27.7690722,60.4761905 28.5195876,59.7142857 29.457732,59.7142857 Z M8.34948454,47.5238095 C10.2257732,48.2857143 11.257732,50.4761905 10.5072165,52.2857143 C9.75670103,54.0952381 7.59896907,54.952381 5.72268041,54.0952381 C3.84639175,53.3333333 2.81443299,51.1428571 3.56494845,49.3333333 C4.31546392,47.5238095 6.47319588,46.7619048 8.34948454,47.5238095 Z" id="Shape"></path>
                    <path d="M88.7484536,30 C87.9041237,30 87.1536082,29.2380952 87.1536082,28.3809524 L87.1536082,18.3809524 C87.1536082,17.5238095 87.9041237,16.7619048 88.7484536,16.7619048 C89.5927835,16.7619048 90.343299,17.5238095 90.343299,18.3809524 L90.343299,28.3809524 C90.343299,29.3333333 89.6865979,30 88.7484536,30 Z" id="Shape"></path>
                    <path d="M88.7484536,46.5714286 C87.9041237,46.5714286 87.1536082,45.8095238 87.1536082,44.952381 L87.1536082,34.952381 C87.1536082,34.0952381 87.9041237,33.3333333 88.7484536,33.3333333 C89.5927835,33.3333333 90.343299,34.0952381 90.343299,34.952381 L90.343299,44.952381 C90.343299,45.8095238 89.6865979,46.5714286 88.7484536,46.5714286 Z" id="Shape"></path>
                    <path d="M7.03608247,30 C6.19175258,30 5.44123711,29.2380952 5.44123711,28.3809524 L5.44123711,18.3809524 C5.44123711,17.5238095 6.19175258,16.7619048 7.03608247,16.7619048 C7.88041237,16.7619048 8.63092784,17.5238095 8.63092784,18.3809524 L8.63092784,28.3809524 C8.63092784,29.3333333 7.88041237,30 7.03608247,30 Z" id="Shape"></path>
                    <path d="M72.4247423,63.4285714 L61.6360825,63.4285714 C60.7917526,63.4285714 60.0412371,62.6666667 60.0412371,61.8095238 C60.0412371,60.952381 60.7917526,60.1904762 61.6360825,60.1904762 L72.4247423,60.1904762 C73.2690722,60.1904762 74.0195876,60.952381 74.0195876,61.8095238 C74.0195876,62.6666667 73.3628866,63.4285714 72.4247423,63.4285714 Z" id="Shape"></path>
                    <path d="M53.4742268,3.33333333 L42.685567,3.33333333 C41.8412371,3.33333333 41.0907216,2.57142857 41.0907216,1.71428571 C41.0907216,0.857142857 41.8412371,0.0952380952 42.685567,0.0952380952 L53.4742268,0.0952380952 C54.3185567,0.0952380952 55.0690722,0.857142857 55.0690722,1.71428571 C55.0690722,2.57142857 54.4123711,3.33333333 53.4742268,3.33333333 Z" id="Shape"></path>
                    <path d="M72.143299,3.33333333 L61.3546392,3.33333333 C60.5103093,3.33333333 59.7597938,2.57142857 59.7597938,1.71428571 C59.7597938,0.857142857 60.5103093,0.0952380952 61.3546392,0.0952380952 L72.143299,0.0952380952 C72.9876289,0.0952380952 73.7381443,0.857142857 73.7381443,1.71428571 C73.7381443,2.57142857 72.9876289,3.33333333 72.143299,3.33333333 Z" id="Shape"></path>
                    <path d="M34.8989691,3.33333333 L24.1103093,3.33333333 C23.2659794,3.33333333 22.5154639,2.57142857 22.5154639,1.71428571 C22.5154639,0.857142857 23.2659794,0.0952380952 24.1103093,0.0952380952 L34.8989691,0.0952380952 C35.743299,0.0952380952 36.4938144,0.857142857 36.4938144,1.71428571 C36.4938144,2.57142857 35.743299,3.33333333 34.8989691,3.33333333 Z" id="Shape"></path>
                    <path d="M88.4670103,63.4285714 L79.8360825,63.4285714 C78.9917526,63.4285714 78.2412371,62.6666667 78.2412371,61.8095238 C78.2412371,60.952381 78.9917526,60.1904762 79.8360825,60.1904762 L86.8721649,60.1904762 L86.8721649,52.3809524 C86.8721649,51.5238095 87.6226804,50.7619048 88.4670103,50.7619048 C89.3113402,50.7619048 90.0618557,51.5238095 90.0618557,52.3809524 L90.0618557,61.8095238 C90.0618557,62.7619048 89.3113402,63.4285714 88.4670103,63.4285714 Z" id="Shape"></path>
                    <path d="M88.7484536,12.0952381 C87.9041237,12.0952381 87.1536082,11.3333333 87.1536082,10.4761905 L87.1536082,3.33333333 L79.4608247,3.33333333 C78.6164948,3.33333333 77.8659794,2.57142857 77.8659794,1.71428571 C77.8659794,0.857142857 78.6164948,0.0952380952 79.4608247,0.0952380952 L88.7484536,0.0952380952 C89.5927835,0.0952380952 90.343299,0.857142857 90.343299,1.71428571 L90.343299,10.4761905 C90.343299,11.4285714 89.6865979,12.0952381 88.7484536,12.0952381 Z" id="Shape"></path>
                    <path d="M16.3237113,3.33333333 L8.63092784,3.33333333 L8.63092784,10.4761905 C8.63092784,11.3333333 7.88041237,12.0952381 7.03608247,12.0952381 C6.19175258,12.0952381 5.53505155,11.4285714 5.53505155,10.4761905 L5.53505155,1.71428571 C5.53505155,0.857142857 6.28556701,0.0952380952 7.12989691,0.0952380952 L16.4175258,0.0952380952 C17.2618557,0.0952380952 18.0123711,0.857142857 18.0123711,1.71428571 C18.0123711,2.57142857 17.2618557,3.33333333 16.3237113,3.33333333 Z" id="Shape"></path>
                    <path d="M54.6,63.4285714 L49.1587629,63.4285714 L49.1587629,60.1904762 L54.6,60.1904762 C55.4443299,60.1904762 56.1948454,60.952381 56.1948454,61.8095238 C56.1948454,62.6666667 55.4443299,63.4285714 54.6,63.4285714 Z" id="Shape"></path>
                    <path d="M8.72474227,36 L8.72474227,40.5714286 L5.53505155,40.5714286 L5.53505155,36 C5.53505155,35.1428571 6.28556701,34.3809524 7.12989691,34.3809524 C7.9742268,34.3809524 8.72474227,35.1428571 8.72474227,36 Z" id="Shape"></path>
                </g>
            </g>
        </g>
    </g>
</svg>