<svg width="40" height="70" viewBox="0 0 40 70" xmlns="http://www.w3.org/2000/svg"><title>39609AEA-5344-4220-B644-9357A0DEEF90</title><g fill="none" fill-rule="evenodd"><path d="M1.518 63.18c0 2.884 2.335 5.233 5.204 5.233H33.28c2.868 0 5.203-2.349 5.203-5.233v-3.214H1.518v3.214zm15.25-.828h5.908a1.48 1.48 0 0 1 1.477 1.484 1.48 1.48 0 0 1-1.477 1.484h-5.909a1.48 1.48 0 0 1-1.477-1.484c.001-.82.663-1.484 1.477-1.484zM33.279 1.588H6.722c-2.87 0-5.204 2.347-5.204 5.232v3.747h36.964V6.82c0-2.885-2.335-5.232-5.203-5.232zm-.35 5.933c-.813 0-1.49-.663-1.49-1.483 0-.82.645-1.483 1.462-1.483h.029c.817 0 1.475.663 1.475 1.483 0 .82-.658 1.483-1.475 1.483z"/><path d="M32.93 4.554h-.03c-.816 0-1.46.663-1.46 1.483 0 .82.676 1.484 1.49 1.484.817 0 1.475-.664 1.475-1.484s-.658-1.483-1.475-1.483z" fill="#F5A623"/><path d="M33.279.186H6.722C3.084.186.124 3.162.124 6.82v56.36c0 3.658 2.96 6.634 6.598 6.634H33.28c3.637 0 6.597-2.976 6.597-6.634V6.82c0-3.658-2.96-6.634-6.597-6.634zm5.203 62.994c0 2.884-2.335 5.233-5.203 5.233H6.722c-2.87 0-5.204-2.349-5.204-5.233v-3.214h36.964v3.214zm0-4.616H1.518V11.97h36.964v46.594zm0-47.997H1.518V6.82c0-2.885 2.335-5.232 5.204-5.232H33.28c2.868 0 5.203 2.347 5.203 5.232v3.747z" fill="#F5A623"/><path d="M16.767 65.321h5.91a1.48 1.48 0 0 0 1.476-1.485 1.48 1.48 0 0 0-1.477-1.483h-5.909a1.48 1.48 0 0 0-1.477 1.483c.001.822.663 1.485 1.477 1.485z" fill="#F5A623"/><g fill="#F5A623"><path d="M11.961 44.328l-.98-1.117c1.313-1.166 3.424-2.056 5.943-2.505a13.581 13.581 0 0 1-.032-1.238c0-.322-.232-.768-.478-1.24-.324-.623-.687-1.324-.764-2.148-.409-.89-.633-1.763-.633-2.471 0-.41.08-.76.237-1.048l-.098-.578c-.04-.245-.082-.494-.127-.747-.453-2.533.442-4.27 2.738-5.308 1.62-.732 4.019-.791 5.835-.143 2.285.816 3.322 2.803 2.85 5.451-.047.253-.088.502-.128.747-.033.195-.065.388-.099.578.158.288.237.638.237 1.047 0 .71-.224 1.582-.632 2.471-.077.835-.449 1.558-.778 2.2-.229.445-.465.905-.465 1.191.003.44.003.869-.015 1.273 2.504.413 4.615 1.302 5.927 2.468l-.981 1.115c-1.111-.986-2.965-1.753-5.222-2.155a1.462 1.462 0 0 1-1.204-1.491c.016-.385.016-.787.014-1.205 0-.653.305-1.248.63-1.878.293-.574.598-1.167.625-1.745l.007-.152.066-.137c.348-.727.547-1.44.547-1.956 0-.22-.042-.322-.066-.347l-.274-.277.073-.385c.052-.279.1-.568.149-.863.041-.25.084-.506.13-.764.348-1.94-.287-3.214-1.886-3.784-1.438-.514-3.471-.472-4.731.097-1.675.758-2.222 1.826-1.888 3.687.047.259.089.513.13.764.05.295.098.583.15.863l.072.385-.276.278c-.023.025-.064.125-.064.346 0 .517.2 1.23.548 1.955l.065.137.008.152c.026.565.322 1.134.608 1.685.318.611.646 1.243.646 1.934-.002.423-.002.826.014 1.207a1.46 1.46 0 0 1-1.205 1.494c-2.256.404-4.11 1.17-5.223 2.157z"/><path d="M20.74 48.544c-7.428 0-13.472-6.076-13.472-13.544 0-7.468 6.044-13.544 13.473-13.544 7.428 0 13.472 6.076 13.472 13.544 0 7.468-6.044 13.544-13.472 13.544zm0-25.598C14.13 22.946 8.75 28.354 8.75 35c0 6.647 5.379 12.054 11.99 12.054 6.613 0 11.992-5.408 11.992-12.055 0-6.647-5.38-12.054-11.991-12.054z"/></g></g></svg>