<svg width="58" height="69" viewBox="0 0 58 69" xmlns="http://www.w3.org/2000/svg"><title>58A36F28-9F19-4F9A-8556-BAA7CD906D81</title><g fill="#F5A623" fill-rule="evenodd"><path d="M47.289.898c-5.816 0-10.569 4.78-10.569 10.629 0 5.905 4.753 10.629 10.569 10.629 5.87 0 10.568-4.724 10.568-10.63C57.857 5.679 53.16.899 47.289.899zm-2.125 6.86h4.305v2.138h1.622v5.455h-7.549V9.896h1.622V7.759zm1.062 1.013v1.125h2.18V8.771h-2.18z"/><path d="M.286 5.691v63.267h52.869V19.584h-1.726v47.638H2.012V7.427h4.859v17.231a530.272 530.272 0 0 1 5.945-6.043c1.982 1.993 4.028 3.986 6.01 6.043V7.428H39.34V5.69H.286zm8.31 1.736H17.1V20.48l-4.283-4.243-4.22 4.243V7.427z"/><path d="M6.87 29.03v1.672h39.636v-1.671H6.871zM6.87 33.981v1.736h39.636v-1.736H6.871zM6.87 38.932v1.736h39.636v-1.736H6.871zM6.87 43.947v1.672h39.636v-1.672H6.871zM6.87 48.898v1.736h39.636v-1.736H6.871zM6.87 54.685v1.736H26.69v-1.736zM38.835 59.57v1.673h7.671V59.57h-7.671z"/></g></svg>