<svg width="120" height="120" viewBox="0 0 120 120" xmlns="http://www.w3.org/2000/svg"><title>8F785E65-6493-4AF1-8045-289F0DFFF3E7</title><path d="M60 .488C26.895.488 0 27.081 0 59.814c0 32.733 26.895 59.326 60 59.326 33.105 0 60-26.593 60-59.326C120 27.081 93.105.488 60 .488zm0 5.394c30.157 0 54.545 24.114 54.545 53.932S90.157 113.747 60 113.747 5.455 89.632 5.455 59.814 29.843 5.882 60 5.882zm32.642 28.272a2.741 2.741 0 0 0-1.875.843L47.642 78.943 29.148 61.88a2.75 2.75 0 0 0-3.848.113 2.676 2.676 0 0 0 .098 3.805l20.454 18.877a2.75 2.75 0 0 0 3.836-.085l45-45.842a2.675 2.675 0 0 0 .558-2.985 2.73 2.73 0 0 0-2.604-1.608z" fill="#F5A623" fill-rule="evenodd"/></svg>