<svg width="116" height="100" viewBox="0 0 116 100" xmlns="http://www.w3.org/2000/svg"><title>59B3A999-E554-4AF3-BD27-0E6DA1719E65</title><g fill="#F5A623" fill-rule="evenodd"><path d="M115.122 26.187L90.583 7.358a.635.635 0 0 0-.172-.093L72.796.999c-.011-.004-.024-.002-.036-.005-.042-.012-.082-.014-.126-.018-.04-.003-.079-.009-.119-.004-.04.005-.08.02-.12.033-.031.01-.065.011-.095.025-.01.005-.016.014-.024.02-.01.004-.02.004-.028.01-.056.034-5.648 3.5-14.25 3.5-8.605 0-14.194-3.465-14.25-3.5-.008-.006-.019-.006-.027-.01-.01-.006-.015-.015-.024-.02-.03-.015-.066-.016-.097-.026-.038-.012-.074-.027-.113-.032-.044-.005-.085 0-.13.004-.039.004-.076.006-.114.016-.014.004-.028.002-.04.007L39.684 2.25c-.01.002-.02 0-.03.003-.016.005-.025.016-.038.022l-14.028 4.99a.62.62 0 0 0-.172.093L.877 26.187a.638.638 0 0 0-.247.504c0 .291.121 7.284 10.638 18.789a.627.627 0 0 0 .732.145l13.17-6.17v57.537c0 .333.257.608.587.632.202.014 20.323 1.413 32.243 1.413 11.92 0 32.042-1.399 32.244-1.413a.632.632 0 0 0 .587-.632V39.454L104 45.625a.63.63 0 0 0 .73-.145C115.25 33.975 115.37 26.982 115.37 26.69a.635.635 0 0 0-.248-.504zM58 5.827c6.395 0 11.11-1.79 13.392-2.88C70.045 6.029 66.2 12.665 58 12.665c-8.21 0-12.05-6.637-13.393-9.718 2.281 1.088 6.997 2.88 13.393 2.88zM43.026 2.405C43.956 4.915 47.99 13.93 58 13.93c10 0 14.044-9.015 14.974-11.524l2.38.846C73.527 8.419 68.057 16.46 58 16.46c-10.064 0-15.53-8.04-17.352-13.21l2.378-.846zm-31.14 41.876c-8.66-9.591-9.818-15.894-9.97-17.295L4.23 25.21a15 15 0 0 0 .182 1.411c.004.061.426 6.208 9.66 16.31l.221.223-2.407 1.128zm77.684 52.12c-3.407.23-20.837 1.37-31.57 1.37s-28.163-1.14-31.57-1.37v-2.538c2.893.196 20.696 1.376 31.57 1.376 10.784 0 28.67-1.18 31.57-1.376v2.538zm.897-58.514a.631.631 0 0 0-.896.574v54.134c-2.596.177-20.719 1.38-31.57 1.38-10.95 0-28.977-1.202-31.57-1.38V38.46a.628.628 0 0 0-.896-.573L15.51 42.584l-.525-.528c-8.79-9.618-9.309-15.453-9.323-15.586a17.94 17.94 0 0 1-.23-2.184L26.106 8.425l13.355-4.75C41.402 9.177 47.235 17.728 58 17.728c10.758 0 16.596-8.555 18.54-14.053l13.356 4.75 20.672 15.862c-.057 1.23-.23 2.18-.24 2.261-.003.058-.515 5.885-9.295 15.49l-.54.547-10.026-4.698zm13.647 6.394l-2.408-1.128.238-.242c9.26-10.129 9.64-16.207 9.633-16.207.006-.034.115-.63.193-1.495l2.316 1.777c-.155 1.406-1.316 7.708-9.972 17.295z" stroke="#F5A623" stroke-width=".5"/><path d="M80.906 74.566a.632.632 0 0 0-.63.633v1.898h-1.892a.632.632 0 0 0 0 1.266h2.522c.348 0 .63-.283.63-.633V75.2a.632.632 0 0 0-.63-.633zM61.452 77.097h-5.645a.632.632 0 0 0 0 1.266h5.645a.632.632 0 0 0 0-1.266zM50.165 77.097h-5.644a.632.632 0 0 0 0 1.266h5.644a.632.632 0 0 0 0-1.266zM72.74 77.097h-5.645a.632.632 0 0 0 0 1.266h5.645a.632.632 0 0 0 0-1.266zM38.876 77.097h-1.89V75.2a.632.632 0 0 0-.631-.633.632.632 0 0 0-.63.633v2.531c0 .35.282.633.63.633h2.521a.632.632 0 0 0 0-1.266zM36.355 70.608c.348 0 .63-.284.63-.633V64.75a.632.632 0 0 0-.63-.633.632.632 0 0 0-.63.633v5.224c0 .35.282.633.63.633zM36.355 49.713c.348 0 .63-.284.63-.633v-5.224a.632.632 0 0 0-.63-.633.632.632 0 0 0-.63.633v5.224c0 .35.282.633.63.633zM36.355 60.16c.348 0 .63-.284.63-.633v-5.223a.632.632 0 0 0-.63-.633.632.632 0 0 0-.63.633v5.223c0 .35.282.632.63.632zM36.355 39.266c.348 0 .63-.284.63-.633v-5.224a.632.632 0 0 0-.63-.633.632.632 0 0 0-.63.633v5.224c0 .35.282.633.63.633zM38.876 25.02h-2.521a.632.632 0 0 0-.63.633v2.532c0 .35.282.633.63.633.348 0 .63-.284.63-.633v-1.899h1.891a.632.632 0 0 0 0-1.266zM61.452 25.02h-5.645a.632.632 0 0 0 0 1.266h5.645a.632.632 0 0 0 0-1.266zM72.74 25.02h-5.645a.632.632 0 0 0 0 1.266h5.645a.632.632 0 0 0 0-1.266zM50.165 25.02h-5.644a.632.632 0 0 0 0 1.266h5.644a.632.632 0 0 0 0-1.266zM80.906 25.02h-2.522a.632.632 0 0 0 0 1.266h1.892v1.899c0 .35.282.633.63.633.348 0 .63-.284.63-.633v-2.532a.632.632 0 0 0-.63-.633zM80.906 64.118a.632.632 0 0 0-.63.633v5.224c0 .35.282.633.63.633.348 0 .63-.284.63-.633V64.75a.632.632 0 0 0-.63-.633zM80.906 32.776a.632.632 0 0 0-.63.633v5.224c0 .35.282.633.63.633.348 0 .63-.284.63-.633v-5.224a.632.632 0 0 0-.63-.633zM80.906 43.223a.632.632 0 0 0-.63.633v5.224c0 .35.282.633.63.633.348 0 .63-.284.63-.633v-5.224a.632.632 0 0 0-.63-.633zM80.906 53.67a.632.632 0 0 0-.63.634v5.223c0 .349.282.632.63.632.348 0 .63-.283.63-.632v-5.223a.632.632 0 0 0-.63-.633z"/></g></svg>