<svg width="127" height="100" viewBox="0 0 127 100" xmlns="http://www.w3.org/2000/svg"><title>54A3C86D-537F-4D4D-A44C-78952F6A44C5</title><g fill="#F5A623" fill-rule="evenodd"><path d="M119.241 16.466H87.345a5.27 5.27 0 0 0-1.439-3.274V7.154A6.86 6.86 0 0 0 79.054.303H48.407c-3.788 0-6.866 3.074-6.866 6.851v6.163a5.214 5.214 0 0 0-1.31 3.149H8.216c-4.266 0-7.737 3.463-7.737 7.72v22.8c0 2.602 1.624 5.234 3.939 6.612v38.667c0 4.044 3.296 7.334 7.35 7.334h103.925c4.056 0 7.354-3.29 7.354-7.334V53.628c2.29-1.36 3.944-4.027 3.944-6.644v-22.8c0-4.255-3.477-7.718-7.75-7.718zm-68.477 0a5.29 5.29 0 0 0-1.484-3.332v-3.82a.79.79 0 0 1 .79-.787h27.308c.442 0 .787.344.787.787v3.888c-.802.862-1.3 1.992-1.378 3.264H50.764zm31.283-2.194c1.265 0 2.308.979 2.506 2.194H79.58c.165-1.245 1.165-2.194 2.468-2.194zM48.407 3.05h30.648c2.26 0 4.099 1.84 4.099 4.104v4.489a5.346 5.346 0 0 0-1.107-.119c-.39 0-.765.045-1.128.12V9.315a3.541 3.541 0 0 0-3.541-3.535H50.07a3.545 3.545 0 0 0-3.546 3.535v2.316a5.368 5.368 0 0 0-1.057-.106 5.21 5.21 0 0 0-1.175.145V7.154a4.113 4.113 0 0 1 4.114-4.104zm-2.939 11.222c1.285 0 2.31.962 2.505 2.194h-4.956c.162-1.245 1.158-2.194 2.451-2.194zm70.223 82.58H11.766c-2.533 0-4.596-2.06-4.596-4.587v-37.68l37.14 8.78c2.514.817 6.685 1.477 9.297 1.477h2.363l-.003.756c0 4.283 3.495 7.77 7.786 7.77 4.313 0 7.695-3.374 7.695-7.677l.003-.85h2.678c2.628 0 6.795-.67 9.174-1.462l36.989-8.783v37.669a4.6 4.6 0 0 1-4.6 4.586zM58.733 61.824H68.7l-.005 3.868c0 2.76-2.172 4.926-4.942 4.926a5.03 5.03 0 0 1-5.03-5.021l.01-3.773zm9.976-2.75h-9.972l.006-1.563h9.97l-.004 1.564zm55.527-12.09c0 1.924-1.55 4.061-3.27 4.633l-38.413 9.121c-2.224.735-6.082 1.355-8.424 1.355h-2.672l.015-7.33H55.994l-.02 7.33h-2.369c-2.33 0-6.199-.615-8.555-1.374L6.598 51.63c-1.826-.588-3.367-2.715-3.367-4.646V24.186c0-2.742 2.234-4.971 4.984-4.971H119.24c2.756 0 4.993 2.23 4.993 4.971v22.8h.003z"/><path d="M114.934 81.899h2.756v2.5h-2.756zM114.742 91.454h-8.588v2.749h8.588a2.949 2.949 0 0 0 2.947-2.941v-3.067h-2.757l-.19 3.259z"/></g></svg>