<svg width="57" height="100" viewBox="0 0 57 100" xmlns="http://www.w3.org/2000/svg"><title>B759C331-B3F1-4166-9A0F-DA5E2185949A</title><g fill="none" fill-rule="evenodd"><path d="M2.163 90.257c0 4.12 3.327 7.476 7.416 7.476h37.843c4.088 0 7.415-3.355 7.415-7.476v-4.591H2.163v4.591zm21.73-1.183h8.42c1.162 0 2.105.948 2.105 2.12a2.111 2.111 0 0 1-2.104 2.12h-8.42a2.112 2.112 0 0 1-2.105-2.12 2.113 2.113 0 0 1 2.105-2.12zM47.422 2.27H9.579c-4.09 0-7.416 3.351-7.416 7.473v5.353h52.674V9.743c0-4.122-3.327-7.474-7.415-7.474zm-.497 8.475a2.13 2.13 0 0 1-2.124-2.12c0-1.17.92-2.118 2.083-2.118h.04c1.166 0 2.103.947 2.103 2.119 0 1.17-.937 2.119-2.102 2.119z"/><path d="M46.925 6.506h-.041c-1.164 0-2.083.947-2.083 2.118a2.13 2.13 0 0 0 2.124 2.12 2.108 2.108 0 0 0 2.102-2.12 2.107 2.107 0 0 0-2.102-2.118z" fill="#4A4A4A"/><path d="M47.422.266H9.579C4.394.266.176 4.517.176 9.743v80.514c0 5.226 4.218 9.477 9.403 9.477h37.843c5.183 0 9.4-4.251 9.4-9.477V9.743c0-5.226-4.217-9.477-9.4-9.477zm7.415 89.991c0 4.12-3.327 7.476-7.415 7.476H9.579c-4.09 0-7.416-3.355-7.416-7.476v-4.591h52.674v4.591zm0-6.594H2.163V17.1h52.674v66.563zm0-68.567H2.163V9.743c0-4.122 3.327-7.474 7.416-7.474h37.843c4.088 0 7.415 3.352 7.415 7.474v5.353z" fill="#4A4A4A"/><path d="M23.894 93.316h8.42a2.111 2.111 0 0 0 2.105-2.121c0-1.173-.945-2.12-2.105-2.12h-8.42a2.112 2.112 0 0 0-2.105 2.12 2.113 2.113 0 0 0 2.105 2.121z" fill="#4A4A4A"/><g fill="#4A4A4A"><path d="M17.045 63.326l-1.397-1.596c1.871-1.665 4.88-2.937 8.47-3.579-.05-.524-.05-1.134-.047-1.768 0-.46-.33-1.097-.68-1.772-.462-.89-.98-1.89-1.09-3.068-.582-1.272-.902-2.519-.902-3.53 0-.585.113-1.086.338-1.497-.047-.271-.093-.547-.14-.827-.057-.35-.116-.705-.18-1.066-.647-3.619.63-6.1 3.902-7.583 2.308-1.045 5.726-1.13 8.314-.204 3.255 1.165 4.734 4.003 4.06 7.787-.066.361-.124.717-.182 1.066-.046.28-.093.556-.14.827.225.41.338.912.338 1.496 0 1.012-.32 2.26-.902 3.53-.11 1.192-.638 2.225-1.108 3.142-.326.636-.662 1.294-.662 1.702.004.629.004 1.24-.022 1.818 3.568.59 6.576 1.86 8.445 3.526l-1.397 1.593c-1.584-1.41-4.226-2.504-7.442-3.08a2.088 2.088 0 0 1-1.715-2.13 36.63 36.63 0 0 0 .02-1.72c0-.932.435-1.783.897-2.683.418-.82.853-1.667.891-2.493l.01-.217.095-.196c.496-1.038.78-2.056.78-2.793 0-.316-.06-.461-.095-.496l-.39-.397.104-.549c.073-.399.142-.812.212-1.233.059-.358.119-.723.186-1.092.495-2.772-.41-4.59-2.689-5.406-2.049-.734-4.946-.673-6.742.14-2.385 1.082-3.165 2.607-2.69 5.266.067.37.127.734.186 1.092.07.421.139.833.214 1.233l.102.55-.393.397c-.033.035-.091.178-.091.494 0 .738.285 1.756.78 2.793l.094.196.01.217c.037.806.46 1.62.867 2.407.453.873.92 1.776.92 2.762-.002.604-.003 1.181.02 1.726a2.085 2.085 0 0 1-1.717 2.133c-3.214.577-5.856 1.67-7.442 3.082z"/><path d="M29.556 69.349c-10.587 0-19.199-8.68-19.199-19.349 0-10.67 8.612-19.349 19.199-19.349 10.585 0 19.198 8.68 19.198 19.349 0 10.668-8.613 19.349-19.198 19.349zm0-36.57c-9.422 0-17.088 7.726-17.088 17.222 0 9.496 7.666 17.22 17.088 17.22 9.421 0 17.087-7.725 17.087-17.221s-7.666-17.22-17.087-17.22z"/></g></g></svg>