<svg width="50" height="50" viewBox="0 0 50 50" xmlns="http://www.w3.org/2000/svg"><title>D1C9B906-B9E3-4ACE-BA9B-FF9241DA17BA</title><g fill="none" fill-rule="evenodd"><circle fill="#4A4A4A" opacity=".7" cx="25" cy="25" r="25"/><path d="M26.44 23.56V14c0-.553-.451-1-1.007-1h-.866c-.557 0-1.007.448-1.007 1v9.56H14c-.553 0-1 .451-1 1.007v.866c0 .557.448 1.007 1 1.007h9.56V36c0 .553.451 1 1.007 1h.866c.557 0 1.007-.448 1.007-1v-9.56H36c.553 0 1-.451 1-1.007v-.866c0-.557-.448-1.007-1-1.007h-9.56z" fill="#FFF"/></g></svg>