<svg width="78" height="70" viewBox="0 0 78 70" xmlns="http://www.w3.org/2000/svg"><title>BDA867FA-E457-4E58-977F-02D5D9E0DAF3</title><path d="M22.213 43.024v1.196c0 .597-.509 1.11-1.102 1.11a1.126 1.126 0 0 1-1.102-1.11v-1.196c0-.597.508-1.11 1.102-1.11.593 0 1.102.513 1.102 1.11zm-1.017 4.44c-.594 0-1.103.512-1.103 1.11 0 .597.51 1.024 1.103 1.024s1.102-.513 1.102-1.11c0-.598-.509-1.025-1.102-1.025zm0-12.208c-.594 0-1.103.512-1.103 1.11v2.305c0 .597.51 1.11 1.103 1.11s1.102-.513 1.102-1.11v-2.305c-.085-.598-.509-1.11-1.102-1.11zm56.126-18.78v35.341c0 .427-.255.768-.679.94l-37.22 16.39h-.084c-.085.085-.254.085-.339.085-.085 0-.254 0-.34-.086h-.084L1.272 52.841c-.424-.17-.679-.512-.679-.939V16.476v-.427c0-.086.085-.086.085-.171 0 0 0-.085.085-.085 0-.086.085-.086.085-.171l.085-.085c.084 0 .084-.086.17-.086h.084L38.491.768c.255-.085.509-.085.763 0L76.56 15.451h.084c.085 0 .085 0 .17.086l.085.085c.085 0 .085.085.085.17l.084.086c0 .085.085.085.085.17v.086c.17.17.17.17.17.342zm-72.829.085l16.364 7.17a.87.87 0 0 1 .508-.426L54.176 8.963 39.085 2.988 4.493 16.56zm33.49 16.988l-15.685-6.83v5.464c0 .597-.509 1.11-1.102 1.11a1.126 1.126 0 0 1-1.103-1.11V25.78L2.798 18.098v33.036L37.983 66.5V33.549zm14.582-7.854l20.942-9.134-16.703-6.573-.17.17L23.23 24.757l2.205.94L39 31.67l13.565-5.976zm22.722-7.597L40.102 33.463V66.5l35.185-15.366V18.098z" fill="#F5A623" fill-rule="evenodd"/></svg>