<svg width="84" height="70" viewBox="0 0 84 70" xmlns="http://www.w3.org/2000/svg"><title>247B43FF-F3E2-4B2A-B0B2-D8A0094938D1</title><g stroke-width=".5" stroke="#F5A623" fill="#F5A623" fill-rule="evenodd"><path d="M38.067 44.386L33.5 39.8l-.907.908 5.515 5.538L50.14 33.072l-.945-.87z"/><path d="M41.987 18.756c-10.89 0-19.72 8.866-19.72 19.803 0 10.938 8.827 19.803 19.72 19.803 10.893 0 19.719-8.865 19.719-19.803 0-10.937-8.828-19.803-19.719-19.803zm0 38.322c-10.168 0-18.44-8.307-18.44-18.516 0-10.212 8.272-18.517 18.44-18.517 10.168 0 18.437 8.308 18.437 18.517s-8.271 18.516-18.437 18.516z"/><path d="M1 68.109c0 .547.441.99 1.007.99h79.986c.556 0 1.007-.453 1.007-.99V1.89a.993.993 0 0 0-1.007-.99H2.007C1.451.9 1 1.354 1 1.89V68.11zm1.281-.296V11.105h31.23l2.595-2.61H81.72v59.32H2.28v-.002zM81.72 2.186v5.021H35.576l-2.596 2.61H2.281v-7.63H81.72z"/></g></svg>